<svg width="24" height="24" viewBox="0 0 24 24" fill="none" xmlns="http://www.w3.org/2000/svg">
<path d="M17.4636 13.6901C17.2006 13.4357 16.849 13.2935 16.4831 13.2935C16.1164 13.2935 15.7641 13.4363 15.5009 13.6917L13.3783 15.752C13.124 15.9988 12.9805 16.3381 12.9805 16.6924C12.9805 17.0468 13.124 17.3861 13.3783 17.6329L17.9354 22.0561C19.0382 23.1264 20.792 23.1264 21.8948 22.0561C23.0464 20.9383 23.0449 19.0893 21.8914 17.9735L17.4636 13.6901Z" fill="#0E8E60"/>
<path d="M17.5673 9.70975C17.9052 10.0346 18.4397 10.0333 18.7761 9.70686L18.9846 9.50445C19.4388 9.06359 20.1612 9.06359 20.6154 9.50445L21.0231 9.90014C21.7044 10.5614 22.8526 10.5573 23.1229 9.64712C23.4606 8.51029 23.1683 7.23381 22.2462 6.33878L18.6351 2.83384C18.3713 2.57782 17.9518 2.57782 17.688 2.83384C17.2569 3.25231 16.5346 2.94681 16.5346 2.34598V1.1351C16.5346 0.917616 16.4473 0.709229 16.2924 0.556654C15.978 0.247196 15.4741 0.245409 15.1576 0.55263L12.2302 3.39396C11.9084 3.70629 11.9084 4.22278 12.2302 4.53511C12.3785 4.67913 12.5772 4.75968 12.784 4.75968H14.1278C14.7102 4.75968 14.9973 5.46784 14.5794 5.87346C14.317 6.12817 14.317 6.54938 14.5794 6.8041L14.7115 6.93234C15.0463 7.25725 15.0463 7.79455 14.7115 8.11946L13.606 9.19246C12.705 10.067 11.2719 10.067 10.3709 9.19246L7.79365 6.691C7.42891 6.33698 7.22308 5.85034 7.22308 5.34204C7.22308 4.83375 7.01724 4.34711 6.6525 3.99309L5.32245 2.70215C4.4401 1.84573 3.03683 1.84573 2.15447 2.70215C1.23409 3.59547 1.23409 5.07275 2.15447 5.96608L3.38551 7.16093C3.75985 7.52426 4.26101 7.72749 4.78269 7.72749C5.30437 7.72749 5.80553 7.93071 6.17987 8.29405L9.65776 11.6697C10.043 12.0436 10.043 12.6619 9.65776 13.0359C9.48012 13.2083 9.24231 13.3047 8.99476 13.3047H8.15769C7.37332 13.3047 6.61981 13.6103 6.05696 14.1566L2.10323 17.9941C0.951939 19.1115 0.951937 20.9594 2.10323 22.0769C3.20695 23.1481 4.96228 23.1481 6.066 22.0769L10.1674 18.0961C10.7119 17.5675 11.0192 16.841 11.0192 16.0821C11.0192 15.3233 11.3265 14.5967 11.8711 14.0682L16.3586 9.71264C16.6949 9.38619 17.2294 9.38491 17.5673 9.70975Z" fill="#0E8E60"/>
</svg>
