<svg width="24" height="22" viewBox="0 0 24 22" fill="none" xmlns="http://www.w3.org/2000/svg">
<path fill-rule="evenodd" clip-rule="evenodd" d="M12.1855 10.2584C14.5285 11.2964 16.6865 11.8224 18.6025 11.8224C19.6935 11.8224 20.4115 11.6514 20.8405 11.5484L20.9605 11.5194C21.2575 11.4504 21.5505 11.4164 21.8415 11.4164C22.2365 11.4164 22.6195 11.4844 22.9865 11.6024C23.0825 11.4284 23.1735 11.2534 23.2355 11.0784C23.8305 9.38635 23.2075 7.83535 22.3785 7.11035C21.7325 6.54535 20.9345 6.41935 20.2435 6.77235L20.1325 6.82835C19.1425 7.34035 16.1255 8.89835 10.1515 7.83335C9.47155 7.71235 8.87355 7.56435 8.31055 7.40335C9.03455 8.54835 10.2035 9.37935 12.1855 10.2584Z" fill="#37B44E"/>
<path fill-rule="evenodd" clip-rule="evenodd" d="M23.421 14.304C22.928 13.6 22.181 13.288 21.428 13.465L21.308 13.494C20.222 13.754 16.921 14.546 11.375 12.087C5.81596 9.62201 5.39296 6.88601 4.96696 0.930006C4.94696 0.657006 4.81696 0.403006 4.60496 0.228006C4.39296 0.0550058 4.11596 -0.0289942 3.84596 0.00900581L1.34596 0.322006C0.831958 0.386006 0.451958 0.831006 0.470958 1.34801L0.589958 4.82601C0.381958 5.65001 -0.486042 9.47401 0.370958 13.165C1.57796 18.364 7.64096 21.231 13.005 21.376C13.262 21.383 13.515 21.386 13.767 21.386C18.387 21.386 22.088 20.225 23.307 18.361C24.288 16.861 24.054 15.206 23.421 14.304Z" fill="#0E8E60"/>
</svg>
